<svg id="Layer_1" data-name="Layer 1" xmlns="http://www.w3.org/2000/svg" viewBox="0 0 1080 1080"><path d="M515.39,561.31,616.54,699.14h-9.26L510.76,567.48,414.24,699.14H405L506.12,561.31,405,423.09h9.27l96.52,131.65,96.52-131.65h9.26Z"/><path d="M865.79,577.35q-8.38-12.44-17.71-24.87,9.3-12.42,17.71-24.86C908,465,931.16,405.06,932.7,354.2,934,312,919.92,276.64,892.05,252c-17.34-15.34-39.45-26.26-65.56-32.74,0-.26,0-.52,0-.78a31.13,31.13,0,0,0-61.62-6.26c-26.1-.09-54.61,2.93-85.13,9.09-47.88-69.2-108.31-106.93-172.2-106.93h-.7c-47.53.2-93.9,21.78-134.09,62.39a320,320,0,0,0-36,44c-92.27-18.16-166-7.38-209.62,31.22C99.26,276.64,85.21,312,86.48,354.2,88,405.06,111.16,465,153.39,527.62q8.4,12.43,17.71,24.86-9.28,12.42-17.71,24.87C111.16,639.94,88,699.91,86.48,750.76,85.21,793,99.26,828.32,127.14,853c22.67,20,53.47,32.58,90.76,37.46a31.1,31.1,0,0,0,61.87,1.46,461.66,461.66,0,0,0,59.63-8.25c47.89,69.21,108.31,107,172.21,107h.69c47.54-.21,93.91-21.78,134.1-62.4a319.4,319.4,0,0,0,36-44c29.12,5.74,56.4,8.6,81.46,8.59,54.35,0,98.3-13.39,128.16-39.8,27.87-24.67,41.93-60,40.65-102.23C931.16,699.91,908,639.94,865.79,577.35ZM763.68,223.61l1.06,0a31.11,31.11,0,0,0,59.38,6.84c23.79,6,44.19,16,60.25,30.18,25.58,22.63,38,54,36.76,93.2-1.47,48.67-23.93,106.51-64.93,167.29Q848.85,532,840.77,542.9a798.35,798.35,0,0,0-75.59-83.73c-10.83-81.31-35.28-156-71.4-216.15-2.34-3.9-4.72-7.69-7.14-11.43C713.86,226.35,739.73,223.61,763.68,223.61ZM681.5,703.16A990.88,990.88,0,0,1,509.62,811.52,989.88,989.88,0,0,1,337.69,703.16,959.31,959.31,0,0,1,265,640.26a718.58,718.58,0,0,1-5.75-86.71,707.77,707.77,0,0,1,5-88.09,958.62,958.62,0,0,1,73.5-63.66,989.91,989.91,0,0,1,171.9-108.34A990.2,990.2,0,0,1,681.5,401.8c25.83,20.21,50.14,41.29,72.71,62.91A720.63,720.63,0,0,1,760,551.42a709.54,709.54,0,0,1-5,88.08A956.43,956.43,0,0,1,681.5,703.16Zm71.08-45.42c-12,82.19-38.36,156.92-75.54,213.69-48.39-10.27-100.78-28.37-154.2-53.54A1004.27,1004.27,0,0,0,688.63,712.28C711.12,694.7,732.5,676.44,752.58,657.74ZM496.36,817.89c-52.48,24.74-104,42.65-151.65,53-36.83-55.52-64.16-129-77.12-212.26,19.8,18.39,40.84,36.34,63,53.64A1003.11,1003.11,0,0,0,496.36,817.89ZM251.78,627.36a769.72,769.72,0,0,1-66.11-74.88,771.25,771.25,0,0,1,65.41-74.19,731.64,731.64,0,0,0-3.43,75.33C247.81,578.59,249.21,603.23,251.78,627.36Zm78.77-234.68c-22.48,17.59-43.86,35.84-63.94,54.54C278.64,365,305,290.3,342.15,233.53c48.39,10.27,100.77,28.37,154.2,53.55A1003.86,1003.86,0,0,0,330.55,392.68Zm192.29-105.6c52.48-24.74,104-42.64,151.65-53,36.82,55.52,64.15,129,77.11,212.23-19.8-18.38-40.84-36.33-63-53.64A1004.2,1004.2,0,0,0,522.84,287.08ZM767.41,477.6a772.24,772.24,0,0,1,66.11,74.88,768.92,768.92,0,0,1-65.42,74.2,728.84,728.84,0,0,0,3.43-75.33C771.38,526.38,770,501.73,767.41,477.6ZM381,184.9c38-38.39,81.52-58.77,125.91-59h.64c60.53,0,116.3,36.81,159.94,98-5.18,1.17-10.41,2.4-15.7,3.75-46.33,11.78-94.33,29.71-142.22,52.85-47.89-23.14-95.89-41.07-142.21-52.85q-9.25-2.35-18.29-4.34A302.16,302.16,0,0,1,381,184.9ZM163,521.14c-41-60.78-63.46-118.62-64.93-167.29-1.19-39.21,11.18-70.57,36.75-93.2,28.41-25.13,70.33-37,120.7-37,23.17,0,48.16,2.56,74.41,7.48-19.18,30-35.66,64.78-48.66,103.21C268,373.48,258.55,416,253.11,460.05a795.66,795.66,0,0,0-74.69,82.85Q170.37,532,163,521.14ZM279.07,880.52A31.1,31.1,0,0,0,219.12,879c-34.24-4.56-63.06-15.93-84.31-34.73-25.57-22.62-37.94-54-36.75-93.2C99.53,702.45,122,644.6,163,583.83q7.35-10.89,15.43-21.76A799.34,799.34,0,0,0,254,645.8c10.84,81.31,35.29,156,71.4,216.15,2.35,3.91,4.74,7.7,7.15,11.44A441.23,441.23,0,0,1,279.07,880.52Zm359.1,39.55c-38,38.38-81.52,58.77-125.92,59h-.64c-60.52,0-116.29-36.81-159.93-98q7.77-1.75,15.7-3.76c46.32-11.78,94.32-29.71,142.21-52.85,47.89,23.14,95.89,41.07,142.22,52.85,6.18,1.57,12.27,3,18.3,4.32A303,303,0,0,1,638.17,920.07Zm246.2-75.76c-28.41,25.14-70.32,37.05-120.69,37.05-23.18,0-48.16-2.57-74.41-7.48,19.18-30,35.65-64.79,48.66-103.21,13.26-39.19,22.7-81.67,28.15-125.75a799,799,0,0,0,74.69-82.85q8.06,10.86,15.43,21.76c41,60.77,63.46,118.62,64.93,167.28C922.32,790.33,910,821.69,884.37,844.31Z"/></svg>
