<svg xmlns="http://www.w3.org/2000/svg" id="Design" width="3556" height="2000" viewBox="0 0 3556 2000"><defs><style>.cls-1{fill:#fff;fill-rule:evenodd}</style></defs><path id="Shape" d="M1679.44,312.305c0,19.956-4.5,24.438-24.51,24.438,20.01,0,24.51,4.483,24.51,24.439,0-19.956,4.49-24.439,24.51-24.439C1683.93,336.743,1679.44,332.261,1679.44,312.305Zm0,60.17-1.25-35.732,1.25-35.73,1.25,35.73Zm-35.84-35.732,35.84-1.248,35.84,1.248m0,0-35.84,1.249-35.84-1.249m71.85-66.824c0,15.343-3.46,18.79-18.85,18.79,15.39,0,18.85,3.446,18.85,18.79,0-15.344,3.45-18.79,18.84-18.79C1718.9,288.709,1715.45,285.262,1715.45,269.919Zm0,46.262-0.97-27.472,0.97-27.473,0.96,27.473Zm-27.56-27.472,27.56-.96,27.55,0.96m0,0-27.55.959-27.56-.959m-57.14,455.013c0,21.65-4.88,26.513-26.59,26.513,21.71,0,26.59,4.863,26.59,26.514,0-21.651,4.88-26.514,26.6-26.514C1635.63,770.235,1630.75,765.372,1630.75,743.722Zm0,65.278-1.36-38.765,1.36-38.765,1.36,38.765Zm-38.88-38.765,38.88-1.354,38.88,1.354m0,0-38.88,1.354-38.88-1.354m87.57-66.133c0,12.99-2.93,15.907-15.96,15.907,13.03,0,15.96,2.918,15.96,15.908,0-12.99,2.92-15.908,15.95-15.908C1682.36,720.009,1679.44,717.092,1679.44,704.1Zm0,39.166-0.82-23.259,0.82-23.258,0.81,23.258Zm-23.33-23.259,23.33-.812,23.33,0.812m0,0-23.33.813-23.33-.813m-99.4-471.593c0,14.873-3.35,18.214-18.27,18.214,14.92,0,18.27,3.341,18.27,18.213,0-14.872,3.35-18.213,18.27-18.213C1560.06,266.63,1556.71,263.289,1556.71,248.416Zm0,44.844-0.93-26.63,0.93-26.63,0.93,26.63ZM1530,266.63l26.71-.931,26.71,0.931m0,0-26.71.93-26.71-.93" class="cls-1"/></svg>