<svg xmlns="http://www.w3.org/2000/svg" id="Design" width="3556" height="2000" viewBox="0 0 3556 2000"><defs><style>.cls-1{fill:#fff;fill-rule:evenodd}</style></defs><path id="Shape" d="M3129.44,1258.31c0,19.95-4.5,24.43-24.51,24.43,20.01,0,24.51,4.49,24.51,24.44,0-19.95,4.49-24.44,24.51-24.44C3133.93,1282.74,3129.44,1278.26,3129.44,1258.31Zm0,60.16-1.25-35.73,1.25-35.73,1.25,35.73Zm-35.84-35.73,35.84-1.25,35.84,1.25m0,0-35.84,1.25-35.84-1.25m71.85-66.82c0,15.34-3.46,18.79-18.85,18.79,15.39,0,18.85,3.45,18.85,18.79,0-15.34,3.45-18.79,18.84-18.79C3168.9,1234.71,3165.45,1231.26,3165.45,1215.92Zm0,46.26-0.97-27.47,0.97-27.47,0.96,27.47Zm-27.56-27.47,27.56-.96,27.55,0.96m0,0-27.55.96-27.56-.96m-57.14,455.01c0,21.65-4.88,26.52-26.59,26.52,21.71,0,26.59,4.86,26.59,26.51,0-21.65,4.88-26.51,26.6-26.51C3085.63,1716.24,3080.75,1711.37,3080.75,1689.72Zm0,65.28-1.36-38.76,1.36-38.77,1.36,38.77Zm-38.88-38.76,38.88-1.36,38.88,1.36m0,0-38.88,1.35-38.88-1.35m87.57-66.14c0,12.99-2.93,15.91-15.96,15.91,13.03,0,15.96,2.92,15.96,15.91,0-12.99,2.92-15.91,15.95-15.91C3132.36,1666.01,3129.44,1663.09,3129.44,1650.1Zm0,39.17-0.82-23.26,0.82-23.26,0.81,23.26Zm-23.33-23.26,23.33-.81,23.33,0.81m0,0-23.33.81-23.33-.81m-99.4-471.59c0,14.87-3.35,18.21-18.27,18.21,14.92,0,18.27,3.34,18.27,18.21,0-14.87,3.35-18.21,18.27-18.21C3010.06,1212.63,3006.71,1209.29,3006.71,1194.42Zm0,44.84-0.93-26.63,0.93-26.63,0.93,26.63ZM2980,1212.63l26.71-.93,26.71,0.93m0,0-26.71.93-26.71-.93" class="cls-1"/></svg>